Coordinates
version=1
nRows=21
nColumns=22
inDegrees=yes

Units are S.I. units (second, meters, Newtons, ...)
If the header above contains a line with 'inDegrees', this indicates whether rotational values are in degrees (yes) or radians (no).

endheader
time	pelvis_tilt	pelvis_list	pelvis_rotation	pelvis_tx	pelvis_ty	pelvis_tz	hip_flexion_r	hip_adduction_r	hip_rotation_r	knee_angle_r	ankle_angle_r	subtalar_angle_r	hip_flexion_l	hip_adduction_l	hip_rotation_l	knee_angle_l	ankle_angle_l	subtalar_angle_l	lumbar_extension	lumbar_bending	lumbar_rotation
      0.01000000	     -0.15245405	     -1.98013340	     -4.07559175	      0.15212004	      0.93304357	      1.13544202	     -2.18015933	      4.26078070	      4.57585636	     -7.11816342	      1.47726346	     -4.81995109	     -1.29804848	     -1.60249047	     -8.63837009	    -10.14018771	     10.91299019	      4.79464636	     -3.86731716	     -1.90841219	      0.46670327
      0.02000000	     -0.15209444	     -1.98101514	     -4.07286542	      0.15215381	      0.93303704	      1.13545473	     -2.18125765	      4.26134026	      4.57571934	     -7.12104533	      1.47639429	     -4.82042233	     -1.30125710	     -1.60685474	     -8.63853134	    -10.13982560	     10.91362187	      4.79484905	     -3.86105417	     -1.90685624	      0.46581678
      0.03000000	     -0.16185734	     -1.99918913	     -4.07204741	      0.15219744	      0.93301431	      1.13548361	     -2.16894596	      4.28314154	      4.56907170	     -7.13230486	      1.47435915	     -4.82359841	     -1.31025132	     -1.63026317	     -8.63457023	    -10.11007566	     10.92457024	      4.80012248	     -3.84438306	     -1.88256369	      0.45671589
      0.04000000	     -0.16224909	     -2.00032612	     -4.06556862	      0.15224198	      0.93300001	      1.13550185	     -2.16917778	      4.28484684	      4.56994235	     -7.13844887	      1.47379363	     -4.82414319	     -1.31433656	     -1.63622691	     -8.63241827	    -10.10777014	     10.92656578	      4.80157363	     -3.83607493	     -1.87941299	      0.45798139
      0.05000000	     -0.17929710	     -2.02346111	     -4.06430543	      0.15228561	      0.93296219	      1.13554345	     -2.14210762	      4.31372548	      4.56169083	     -7.16413457	      1.47730525	     -4.82788767	     -1.32860849	     -1.66463168	     -8.61213888	    -10.05292140	     10.94598429	      4.81369674	     -3.81259638	     -1.84891522	      0.44915948
      0.06000000	     -0.18034603	     -2.02330219	     -4.05000178	      0.15234350	      0.93294289	      1.13556465	     -2.14125760	      4.31596162	      4.56342218	     -7.17330428	      1.47755310	     -4.82850086	     -1.33434748	     -1.67024138	     -8.61082906	    -10.04694344	     10.94786363	      4.81558511	     -3.80244630	     -1.84759244	      0.45111893
      0.07000000	     -0.20134516	     -2.03918161	     -4.04505219	      0.15240715	      0.93289501	      1.13561167	     -2.10158309	      4.33959789	      4.55068859	     -7.21751227	      1.49151805	     -4.83304290	     -1.36076765	     -1.68956482	     -8.58421794	     -9.96077917	     10.96334825	      4.82971109	     -3.77225791	     -1.82535532	      0.43173207
      0.08000000	     -0.21732519	     -2.04042374	     -4.02929861	      0.15248891	      0.93285085	      1.13563097	     -2.06578015	      4.34629578	      4.53285457	     -7.26738910	      1.51707043	     -4.83874719	     -1.38464952	     -1.69253051	     -8.54292121	     -9.89009804	     10.96085553	      4.84631198	     -3.74151222	     -1.81726357	      0.42660693
      0.09000000	     -0.23412091	     -2.02159324	     -4.00498655	      0.15257182	      0.93280567	      1.13563925	     -2.02294663	      4.33299073	      4.49849807	     -7.32762359	      1.57355257	     -4.84688634	     -1.41183923	     -1.67207492	     -8.48492312	     -9.80483565	     10.92719755	      4.86619629	     -3.71286434	     -1.83432552	      0.42239733
      0.10000000	     -0.24161099	     -2.00194219	     -3.98424160	      0.15267513	      0.93277096	      1.13565769	     -1.99112024	      4.31763187	      4.48045754	     -7.38763076	      1.62382504	     -4.84989699	     -1.45667245	     -1.65085039	     -8.45315414	     -9.70979693	     10.89627935	      4.86882929	     -3.69181571	     -1.85262869	      0.40398912
      0.11000000	     -0.24380373	     -1.97934682	     -3.96375461	      0.15279246	      0.93274498	      1.13567251	     -1.96474814	      4.29889299	      4.46706637	     -7.45002160	      1.67905280	     -4.84739583	     -1.51529343	     -1.62411431	     -8.42035843	     -9.60050881	     10.85910044	      4.86024396	     -3.67801989	     -1.87221620	      0.38775136
      0.12000000	     -0.23698582	     -1.94942396	     -3.94227942	      0.15292846	      0.93273000	      1.13569819	     -1.94927714	      4.27153843	      4.45205925	     -7.51189319	      1.74404784	     -4.83892649	     -1.58932589	     -1.58909702	     -8.38284032	     -9.48236692	     10.80624687	      4.84067831	     -3.67195042	     -1.90460970	      0.36913009
      0.13000000	     -0.22832677	     -1.92378142	     -3.92042523	      0.15307349	      0.93271961	      1.13572582	     -1.93958806	      4.24905579	      4.43944894	     -7.56814144	      1.80336037	     -4.82714252	     -1.66976081	     -1.55755044	     -8.34790571	     -9.35689343	     10.75798980	      4.81745423	     -3.67083396	     -1.92962155	      0.35155602
      0.14000000	     -0.21560851	     -1.89839674	     -3.89641840	      0.15322678	      0.93271747	      1.13575969	     -1.94025697	      4.22649243	      4.42571913	     -7.61302612	      1.85821568	     -4.81372252	     -1.75428880	     -1.52619521	     -8.31439329	     -9.23195993	     10.70864052	      4.79326544	     -3.67649346	     -1.95499840	      0.32967390
      0.15000000	     -0.21743365	     -1.88999988	     -3.87279088	      0.15338530	      0.93269571	      1.13582268	     -1.93627670	      4.22463935	      4.42703416	     -7.63848961	      1.87328508	     -4.80973451	     -1.80071153	     -1.52098158	     -8.32435979	     -9.15700494	     10.70084825	      4.78591884	     -3.66554091	     -1.96110931	      0.28945075
      0.16000000	     -0.19578231	     -1.86673595	     -3.84429771	      0.15357192	      0.93271313	      1.13589145	     -1.95878155	      4.20607577	      4.39201973	     -7.66545205	      1.93257592	     -4.79758005	     -1.90520310	     -1.49017817	     -8.24787707	     -9.01293207	     10.63591004	      4.76449758	     -3.68310284	     -1.99121446	      0.28538276
      0.17000000	     -0.20086914	     -1.86222680	     -3.81932518	      0.15375191	      0.93269252	      1.13600028	     -1.96728037	      4.21134066	      4.38176223	     -7.66293614	      1.93843461	     -4.79646735	     -1.93978453	     -1.49250657	     -8.26627713	     -8.95482092	     10.63530039	      4.76069495	     -3.67199973	     -1.99878793	      0.24967336
      0.18000000	     -0.17271926	     -1.85833327	     -3.77868707	      0.15398199	      0.93272645	      1.13609434	     -2.02227813	      4.21462329	      4.33044580	     -7.64818416	      1.95243090	     -4.79877649	     -2.03449943	     -1.48719620	     -8.18032934	     -8.85032733	     10.59627303	      4.75193977	     -3.69546201	     -2.00865176	      0.22493919
      0.19000000	     -0.18161235	     -1.85699831	     -3.75565542	      0.15419022	      0.93270654	      1.13622931	     -2.04071975	      4.22386478	      4.30770697	     -7.62255474	      1.95492492	     -4.80049794	     -2.05302181	     -1.49514455	     -8.19753750	     -8.81870971	     10.60076985	      4.75191631	     -3.68100161	     -2.01425979	      0.21170175
      0.20000000	     -0.16714286	     -1.87034647	     -3.70786601	      0.15443788	      0.93272162	      1.13634256	     -2.09995706	      4.24787714	      4.25157622	     -7.57526590	      1.93173212	     -4.81807547	     -2.09812868	     -1.51723989	     -8.13459946	     -8.78697917	     10.60711453	      4.76170959	     -3.69050742	     -2.00423004	      0.17234118
      0.21000000	     -0.17657346	     -1.87028689	     -3.69052778	      0.15467864	      0.93270090	      1.13650122	     -2.12496960	      4.25867101	      4.22303421	     -7.54134402	      1.93424875	     -4.82201788	     -2.10371894	     -1.52873326	     -8.13545608	     -8.78607793	     10.61276716	      4.76534834	     -3.67102543	     -2.01082271	      0.18406535
